<svg width="483" height="162" viewBox="0 0 483 162" fill="none" xmlns="http://www.w3.org/2000/svg">
<path d="M276.281 46.2605H261.921V124.31H276.281V46.2605Z" fill="black"/>
<path d="M245.574 17.9904H230.634V124.301H245.574V17.9904Z" fill="black"/>
<path d="M350.18 54.2781V55.3302L349.435 54.5868C346.512 51.6896 343.048 49.4008 339.242 47.8517C335.435 46.3027 331.361 45.524 327.254 45.5604H326.904C315.978 45.5604 306.719 49.2648 300.124 56.2692C293.529 63.2737 289.948 73.2263 289.796 85.0395C290.099 108.796 304.81 124.171 327.267 124.171C335.98 124.032 343.649 120.827 349.435 114.905L350.18 114.144V121.44C350.18 128.166 348.69 133.784 345.745 138.14C341.904 143.858 335.322 147.093 327.22 147.245C326.986 147.245 326.743 147.245 326.51 147.245C320.282 147.245 314.185 145.028 309.777 141.158C306.811 138.628 304.675 135.257 303.649 131.488L303.35 130.379L290.441 135.314L290.775 136.266C292.679 141.85 295.87 146.902 300.09 151.01C306.975 157.767 316.472 161.337 327.549 161.337C339.8 161.337 350.305 156.249 357.13 147.01C362.075 140.053 364.691 131.205 364.691 121.423V46.2603H350.18V54.2781ZM350.028 84.5654C350.097 92.8265 347.642 99.7483 342.918 104.531C340.989 106.488 338.69 108.039 336.157 109.093C333.623 110.146 330.906 110.681 328.164 110.666C313.501 110.666 304.299 100.844 304.152 85.0134C304.299 69.1348 313.722 58.878 328.164 58.878C330.954 58.8593 333.721 59.3997 336.301 60.4673C338.881 61.5348 341.223 63.1083 343.19 65.0956C347.729 69.7 350.093 76.3132 350.028 84.2264V84.5654Z" fill="black"/>
<path d="M438.325 51.6782C431.115 46.4911 422.497 45.717 418.002 45.717C413.591 45.6798 409.222 46.5845 405.186 48.3707C401.149 50.157 397.537 52.784 394.588 56.0781L393.83 56.9215V46.2605H379.92L379.76 124.31H393.813V84.4482C394.094 76.9959 396.411 70.6697 400.468 66.1392C404.526 61.6087 410.134 59.1825 416.586 59.1825C416.889 59.1825 417.193 59.1825 417.496 59.1825C426.429 59.4304 437.082 63.787 437.082 83.1396V124.288H451.13V82.6742C451.126 68.2391 446.813 57.8 438.325 51.6782Z" fill="black"/>
<path d="M480.846 46.2605H466.486V124.31H480.846V46.2605Z" fill="black"/>
<path d="M199.979 114.123V124.275L214.49 124.305V46.2604H199.979V55.3303L199.238 54.5868C196.315 51.6891 192.85 49.4 189.043 47.8509C185.236 46.3019 181.161 45.5234 177.054 45.5604H176.703C165.777 45.5604 156.514 49.2648 149.923 56.2693C143.332 63.2738 139.743 73.2263 139.595 85.0396C139.898 108.797 154.605 124.171 177.067 124.171C185.779 124.032 193.444 120.827 199.234 114.905L199.979 114.123ZM177.963 110.666C163.296 110.666 154.094 100.844 153.951 85.0134C154.094 69.1349 163.521 58.878 177.963 58.878C180.754 58.8592 183.521 59.4 186.101 60.4684C188.681 61.5367 191.023 63.1113 192.989 65.0999C197.532 69.7 199.897 76.3132 199.827 84.2307V84.5525C199.901 92.8136 197.441 99.7354 192.717 104.518C190.789 106.478 188.491 108.031 185.958 109.087C183.424 110.143 180.706 110.679 177.963 110.666Z" fill="black"/>
<path d="M269.066 17.66C266.628 17.6623 264.29 18.6353 262.566 20.3658C260.842 22.0962 259.872 24.4428 259.868 26.8906C259.872 29.3388 260.842 31.6858 262.566 33.4169C264.29 35.1481 266.628 36.1222 269.066 36.1257C271.504 36.1222 273.842 35.1481 275.566 33.4169C277.29 31.6858 278.26 29.3388 278.264 26.8906C278.26 24.4428 277.29 22.0962 275.566 20.3658C273.841 18.6353 271.504 17.6623 269.066 17.66Z" fill="black"/>
<path d="M464.364 28.0949C464.621 30.1053 465.535 31.9732 466.963 33.406C468.391 34.8389 470.252 35.7556 472.254 36.0125C472.654 36.0645 473.056 36.0907 473.458 36.0908C474.925 36.0849 476.369 35.7273 477.671 35.0478C478.972 34.3682 480.093 33.3864 480.941 32.1841C481.788 30.9817 482.337 29.5933 482.542 28.1349C482.747 26.6764 482.602 25.1901 482.119 23.7993C481.689 22.4869 480.958 21.2945 479.984 20.318C479.011 19.3414 477.823 18.6081 476.515 18.1773C475.525 17.8466 474.489 17.6763 473.445 17.6729C472.141 17.6743 470.852 17.9548 469.664 18.4954C468.476 19.0359 467.416 19.8242 466.555 20.8079C465.69 21.7928 465.046 22.9535 464.667 24.2111C464.289 25.4687 464.186 26.7935 464.364 28.0949Z" fill="black"/>
<path d="M98.8199 53.526C92.9227 42.2855 83.9975 32.9356 73.0626 26.5428C62.9896 20.7061 51.5562 17.6531 39.9261 17.6948H39.7832C32.7999 17.6969 25.8603 18.8002 19.218 20.9645L28.9052 39.2257C32.4673 38.3618 36.1187 37.924 39.7832 37.9213H39.8828C47.9942 37.8613 55.9738 39.981 62.9943 44.0606C70.0313 48.1867 76.2757 54.7607 81.1821 63.4478L113.639 124.523H136.495L98.8199 53.526Z" fill="black"/>
<path d="M74.7514 67.3652C71.0575 60.7781 62.8037 52.0605 54.6279 48.6431C49.6955 46.512 44.3633 45.4738 38.995 45.5996C28.8475 45.83 19.1881 50.0189 12.0641 57.2782C4.8922 64.4888 0.798057 74.2197 0.649105 84.4091C0.553786 89.6379 1.50335 94.8329 3.44165 99.687C5.37996 104.541 8.26768 108.956 11.9342 112.67C15.579 116.412 19.9343 119.382 24.7423 121.403C29.5504 123.425 34.7135 124.458 39.9261 124.44C45.1025 124.452 50.2296 123.43 55.0091 121.434C59.7885 119.438 64.1251 116.508 67.7664 112.814L57.2478 93.0136C56.5972 94.4405 55.7756 95.7823 54.8011 97.0093C53.0158 99.2481 50.7521 101.055 48.1773 102.297C45.6025 103.539 42.7825 104.184 39.9261 104.183C37.3928 104.191 34.8835 103.689 32.5466 102.707C30.2097 101.725 28.0925 100.283 26.3199 98.4659C24.536 96.6573 23.131 94.508 22.1879 92.1453C21.2448 89.7825 20.7827 87.2541 20.8289 84.7091C20.9457 79.7716 22.94 75.0662 26.4025 71.5581C29.8651 68.0501 34.5334 66.0053 39.4498 65.8434H39.9088C42.4176 65.9001 44.8898 66.4604 47.1796 67.4913C51.0769 69.1174 54.8791 73.7001 56.5939 76.5045L60.0582 82.6308L82.334 124.553H105.199L76.4706 70.3219L74.7514 67.3652Z" fill="black"/>
</svg>
